<svg width="45" height="45" viewBox="0 0 45 45" fill="none" xmlns="http://www.w3.org/2000/svg">
<path fill-rule="evenodd" clip-rule="evenodd" d="M22.5 45C34.9264 45 45 34.9264 45 22.5C45 10.0736 34.9264 0 22.5 0C10.0736 0 0 10.0736 0 22.5C0 34.9264 10.0736 45 22.5 45ZM9.83935 12.4233C10.4038 11.8589 34.1108 11.8589 34.6753 12.4233C35.2397 12.9878 23.3862 23.148 22.2573 23.148C21.1284 23.148 9.27489 12.9878 9.83935 12.4233ZM9.27489 14.1167L15.4839 20.3257C15.3714 20.4703 15.2534 20.6199 15.1317 20.7742L15.1316 20.7744C13.8283 22.4266 12.0972 24.6212 12.0972 27.0991C12.59 26.7705 13.0231 26.158 13.5378 25.4301C14.4378 24.1574 15.5872 22.5319 17.7417 21.4546C18.8706 22.5835 21.3542 24.8413 22.2573 24.8413C23.1604 24.8413 26.5848 22.5835 27.9018 21.4546C29.5264 22.1044 30.6647 24.026 31.5105 25.4538C32.1341 26.5065 32.5987 27.2908 32.9819 27.0991C33.8851 26.6476 31.2886 22.019 29.5952 19.7612L35.2397 14.1167C35.616 19.9494 36.3518 31.8506 35.8042 32.1792C32.9819 33.8726 11.5327 33.8726 9.27489 32.1792C8.76401 31.796 9.08674 19.9494 9.27489 14.1167Z" fill="black"/>
</svg>
