<svg width="45" height="45" viewBox="0 0 45 45" fill="none" xmlns="http://www.w3.org/2000/svg">
<path fill-rule="evenodd" clip-rule="evenodd" d="M22.5 45C34.9264 45 45 34.9264 45 22.5C45 10.0736 34.9264 0 22.5 0C10.0736 0 0 10.0736 0 22.5C0 34.9264 10.0736 45 22.5 45ZM9.375 15V35.625H15V15H9.375ZM8.90625 9.31501C8.90625 11.1413 10.3763 12.6225 12.1875 12.6225C14.0006 12.6225 15.4688 11.1413 15.4688 9.31501C15.4688 7.48876 13.9987 6.00751 12.1875 6.00751C10.3763 6.00751 8.90625 7.48876 8.90625 9.31501ZM31.875 35.625H37.5V22.9519C37.5 13.1025 26.9925 13.4606 24.375 18.3094V15H18.75V35.625H24.375V25.1175C24.375 19.2806 31.875 18.8025 31.875 25.1175V35.625Z" fill="black"/>
</svg>
