<svg width="171" height="170" viewBox="0 0 171 170" fill="none" xmlns="http://www.w3.org/2000/svg">
<path fill-rule="evenodd" clip-rule="evenodd" d="M88.5 170C134.063 170 171 133.063 171 87.5C171 41.9365 134.063 5 88.5 5C42.9365 5 6 41.9365 6 87.5C6 133.063 42.9365 170 88.5 170ZM25.9174 134.403C36.4736 135.906 38.4659 134.403 41.4775 104.287C61.555 141.226 81.6325 125.368 79.6248 119.847C78.8428 117.697 77.6337 117.833 75.6548 118.057C71.2292 118.558 62.9539 119.495 46.9988 96.2558C51.5229 94.0014 76.1223 70.9008 68.5821 67.1434C65.0251 65.3709 58.9845 72.164 53.9013 77.8805C50.0989 82.1565 46.8323 85.8301 45.5417 84.8654C44.4217 84.0283 44.8612 76.1457 45.3933 66.6037C46.294 50.448 47.46 29.5354 41.7716 30.0079C31.0447 30.8988 31.1208 54.963 31.2013 80.4615V80.4617V80.4619V80.462V80.4622C31.2083 82.6753 31.2154 84.8993 31.2154 87.1198C31.2154 102.044 28.6027 113.271 26.7653 121.167C25.1795 127.981 24.171 132.314 25.9174 134.403ZM69.0819 48.1772C73.0542 51.1398 85.513 41.3996 82.4885 32.3768C80.5023 26.4516 59.6476 41.1411 69.0819 48.1772ZM84.4885 115.81C84.2699 105.159 81.8353 93.3625 79.729 83.1558C77.0506 70.1773 74.9028 59.7699 78.5161 57.5588C90.9296 50.6461 100.364 105.948 93.9089 133.105C87.4539 160.262 74.5438 162.731 64.1165 160.262C53.6891 157.793 52.6961 136.561 58.6545 138.536C61.535 139.491 62.2107 141.946 62.8694 144.339C63.5733 146.896 64.2577 149.383 67.5923 149.893C74.0473 150.88 84.985 140.005 84.4885 115.81ZM101.837 85.4461C106.439 46.3333 126.57 36.5551 140.95 44.6077C146.049 46.6352 146.125 48.5754 147.226 76.6752L147.277 77.9686C147.975 95.7749 154.184 103.62 158.312 108.838C160.986 112.216 162.787 114.492 161.657 117.657C158.781 125.709 144.976 117.081 140.95 102.702C133.71 113.84 125.392 117.968 122.782 119.264L122.779 119.265C122.695 119.307 122.616 119.346 122.544 119.382C120.243 120.533 97.2356 124.559 101.837 85.4461ZM116.135 76.2559C121.32 52.7149 132.209 49.844 135.32 53.2891C136.53 57.4996 138.224 69.5955 135.32 84.2942C131.691 102.668 121.32 107.835 118.727 107.261C116.135 106.687 110.949 99.7969 116.135 76.2559Z" fill="#4C8D9F"/>
</svg>
